<?xml version="1.0" standalone="no"?>
<!DOCTYPE svg PUBLIC "-//W3C//DTD SVG 20010904//EN"
 "http://www.w3.org/TR/2001/REC-SVG-20010904/DTD/svg10.dtd">
<svg version="1.0" xmlns="http://www.w3.org/2000/svg"
 width="100.000000pt" height="100.000000pt" viewBox="0 0 100.000000 100.000000"
 preserveAspectRatio="xMidYMid meet">
<metadata>
Created by potrace 1.15, written by Peter Selinger 2001-2017
</metadata>
<g transform="translate(0.000000,100.000000) scale(0.100000,-0.100000)"
fill="#000000" stroke="none">
<path d="M348 981 c-214 -69 -348 -254 -348 -481 0 -287 213 -500 500 -500
287 0 500 213 500 500 0 227 -136 415 -349 480 -83 26 -223 26 -303 1z m277
-152 c73 -27 156 -104 192 -177 25 -50 28 -68 28 -152 0 -114 -18 -163 -91
-240 -66 -71 -136 -103 -238 -108 -65 -3 -92 0 -138 17 -58 23 -76 42 -54 60
10 8 26 5 62 -10 68 -31 165 -29 236 3 77 36 113 71 149 144 42 85 44 174 7
255 -36 77 -70 114 -143 150 -53 26 -75 31 -135 31 -173 0 -302 -129 -302
-301 0 -74 22 -138 67 -197 29 -37 31 -50 11 -57 -19 -8 -72 53 -100 112 -17
37 -21 66 -21 141 0 84 3 102 28 152 35 71 119 150 190 177 72 27 178 28 252
0z m-66 -242 c50 -42 91 -82 91 -87 0 -14 -180 -165 -201 -168 -18 -3 -19 6
-19 168 0 206 -6 202 129 87z"/>
</g>
</svg>
