<svg width="52" height="52" viewBox="0 0 52 52" fill="none" xmlns="http://www.w3.org/2000/svg">
<path d="M43.0492 19.6065H35.1904L33.9688 14.7237C33.6849 13.5839 32.6637 12.7869 31.4881 12.7869H20.5119C19.3363 12.7869 18.3151 13.5839 18.0304 14.7237L16.8097 19.6065H8.95083C6.6006 19.6065 4.68854 21.5186 4.68854 23.8688V42.6229C4.68854 44.9732 6.6006 46.8852 8.95083 46.8852H43.0492C45.3994 46.8852 47.3115 44.9732 47.3115 42.6229V23.8688C47.3115 21.5186 45.3994 19.6065 43.0492 19.6065ZM45.6066 42.6229C45.6066 44.0329 44.4592 45.1803 43.0492 45.1803H8.95083C7.54087 45.1803 6.39346 44.0329 6.39346 42.6229V23.8688C6.39346 22.4589 7.54087 21.3115 8.95083 21.3115H17.4754C17.8667 21.3115 18.2068 21.0455 18.3023 20.6661L19.6841 15.1379C19.7796 14.7577 20.1198 14.4918 20.5119 14.4918H31.489C31.8803 14.4918 32.2204 14.7577 32.3159 15.1379L33.6977 20.6661C33.7932 21.0455 34.1333 21.3115 34.5246 21.3115H43.0492C44.4592 21.3115 45.6066 22.4589 45.6066 23.8688V42.6229Z" fill="black"/>
<path d="M26 23.0164C20.3593 23.0164 15.7705 27.6051 15.7705 33.2459C15.7705 38.8866 20.3593 43.4754 26 43.4754C31.6407 43.4754 36.2295 38.8866 36.2295 33.2459C36.2295 27.6051 31.6407 23.0164 26 23.0164ZM26 41.7705C21.2996 41.7705 17.4754 37.9463 17.4754 33.2459C17.4754 28.5454 21.2996 24.7213 26 24.7213C30.7005 24.7213 34.5246 28.5454 34.5246 33.2459C34.5246 37.9463 30.7005 41.7705 26 41.7705Z" fill="black"/>
<path d="M26 26.4263C22.2398 26.4263 19.1803 29.4857 19.1803 33.2459C19.1803 37.0061 22.2398 40.0656 26 40.0656C29.7602 40.0656 32.8196 37.0061 32.8196 33.2459C32.8196 29.4857 29.7602 26.4263 26 26.4263ZM26 38.3607C23.1792 38.3607 20.8852 36.0667 20.8852 33.2459C20.8852 30.4252 23.1792 28.1312 26 28.1312C28.8208 28.1312 31.1147 30.4252 31.1147 33.2459C31.1147 36.0667 28.8208 38.3607 26 38.3607Z" fill="black"/>
<path d="M1.2787 8.52466C0.807288 8.52466 0.426239 8.90656 0.426239 9.37712V17.9017H2.13116V10.2296H9.80329V8.52466H1.2787Z" fill="black"/>
<path d="M49.8689 42.6229V50.2951H42.1967V52H50.7213C51.1927 52 51.5738 51.6181 51.5738 51.1475V42.6229H49.8689Z" fill="black"/>
<path d="M2.13116 50.2951V42.6229H0.426239V51.1475C0.426239 51.6181 0.807288 52 1.2787 52H9.80329V50.2951H2.13116Z" fill="black"/>
<path d="M13.2131 23.0164H8.95082C8.47941 23.0164 8.09836 23.3983 8.09836 23.8688V28.1311C8.09836 28.6017 8.47941 28.9836 8.95082 28.9836H13.2131C13.6845 28.9836 14.0656 28.6017 14.0656 28.1311V23.8688C14.0656 23.3983 13.6845 23.0164 13.2131 23.0164ZM12.3607 27.2787H9.80328V24.7213H12.3607V27.2787Z" fill="black"/>
<path d="M50.7213 5.11471C48.8408 5.11471 47.3115 3.5854 47.3115 1.70488C47.3115 1.23432 46.9304 0.852417 46.459 0.852417C45.9876 0.852417 45.6065 1.23432 45.6065 1.70488C45.6065 3.5854 44.0772 5.11471 42.1967 5.11471C41.7253 5.11471 41.3442 5.49661 41.3442 5.96717C41.3442 6.43773 41.7253 6.81963 42.1967 6.81963C44.0772 6.81963 45.6065 8.34894 45.6065 10.2295C45.6065 10.7 45.9876 11.0819 46.459 11.0819C46.9304 11.0819 47.3115 10.7 47.3115 10.2295C47.3115 8.34894 48.8408 6.81963 50.7213 6.81963C51.1927 6.81963 51.5737 6.43773 51.5737 5.96717C51.5737 5.49661 51.1927 5.11471 50.7213 5.11471ZM46.459 7.40527C46.0805 6.83583 45.5903 6.34566 45.0209 5.96717C45.5903 5.58868 46.0805 5.09852 46.459 4.52907C46.8375 5.09852 47.3277 5.58868 47.8971 5.96717C47.3277 6.34566 46.8375 6.83583 46.459 7.40527Z" fill="black"/>
<path d="M43.0492 10.2296C41.1686 10.2296 39.6393 8.70027 39.6393 6.81974C39.6393 6.34919 39.2583 5.96729 38.7869 5.96729C38.3155 5.96729 37.9344 6.34919 37.9344 6.81974C37.9344 8.70027 36.4051 10.2296 34.5246 10.2296C34.0532 10.2296 33.6721 10.6115 33.6721 11.082C33.6721 11.5526 34.0532 11.9345 34.5246 11.9345C36.4051 11.9345 37.9344 13.4638 37.9344 15.3443C37.9344 15.8149 38.3155 16.1968 38.7869 16.1968C39.2583 16.1968 39.6393 15.8149 39.6393 15.3443C39.6393 13.4638 41.1686 11.9345 43.0492 11.9345C43.5206 11.9345 43.9016 11.5526 43.9016 11.082C43.9016 10.6115 43.5206 10.2296 43.0492 10.2296ZM38.7869 12.5201C38.4084 11.9507 37.9182 11.4614 37.3488 11.082C37.9182 10.7035 38.4084 10.2134 38.7869 9.64394C39.1654 10.2134 39.6555 10.7027 40.225 11.082C39.6555 11.4605 39.1662 11.9507 38.7869 12.5201Z" fill="black"/>
<path d="M35.377 4.2623C33.4965 4.2623 31.9672 2.73298 31.9672 0.852459C31.9672 0.381902 31.5862 0 31.1148 0C30.6433 0 30.2623 0.381902 30.2623 0.852459C30.2623 2.73298 28.733 4.2623 26.8525 4.2623C26.381 4.2623 26 4.6442 26 5.11475C26 5.58531 26.381 5.96721 26.8525 5.96721C28.733 5.96721 30.2623 7.49652 30.2623 9.37705C30.2623 9.84761 30.6433 10.2295 31.1148 10.2295C31.5862 10.2295 31.9672 9.84761 31.9672 9.37705C31.9672 7.49652 33.4965 5.96721 35.377 5.96721C35.8485 5.96721 36.2295 5.58531 36.2295 5.11475C36.2295 4.6442 35.8485 4.2623 35.377 4.2623ZM31.1148 6.55285C30.7363 5.98341 30.2461 5.49325 29.6767 5.11475C30.2461 4.73626 30.7363 4.2461 31.1148 3.67666C31.4932 4.2461 31.9834 4.73626 32.5529 5.11475C31.9834 5.49325 31.4932 5.98341 31.1148 6.55285Z" fill="black"/>
</svg>
